<?xml version="1.0"?>
<svg version="1.1" xmlns="http://www.w3.org/2000/svg" width="650" height="200" style="border: dashed 2px #aaa"><path fill="#f7f9fa" d="M17.4609375,133.671875q-0.0390625-1.171875-0.0390625-2.34375q0-3.671875,0.390625-7.3828125q0.46875-4.921875,0.625-9.6875q0.15625-5.5859375,0.46875-11.6015625q0.1953125-3.28125,0.1953125-6.484375q0-2.6171875-0.1171875-5.1953125q0.390625-0.8984375,1.03515625-1.2109375t1.62109375-0.3125q0.46875,0,0.99609375,0.078125t0.91796875,0.390625q0.546875,0.078125,1.34765625,0.15625t1.23046875,0.46875q0.15625,0.234375,0.80078125,1.6015625t1.5234375,3.3203125t1.8359375,4.23828125t1.8359375,4.3359375t1.5234375,3.61328125t0.80078125,1.953125q3.671875-6.640625,7.1875-13.65234375t7.6953125-13.22265625q0.390625-0.546875,1.34765625-0.80078125t1.58203125-0.25390625q1.6796875,0,2.44140625,0.80078125t0.99609375,2.05078125q0.15625,0.78125,0.1953125,1.6796875q0.0390625,0.46875-0.0390625,0.9765625q-0.15625,1.4453125-0.15625,2.734375q0,9.1015625-0.625,18.06640625t-1.1328125,18.10546875q-0.078125,1.875-0.078125,3.90625t0.078125,4.21875q0.0390625,0.78125,0.0390625,1.5234375q0,3.4375-0.5859375,6.40625q-0.546875,0.8984375-1.796875,1.1328125t-2.109375,0.234375q-1.8359375,0-3.515625-0.859375l-0.4296875-0.5078125l-0.15625-0.625t-0.078125-0.625q0-5.6640625,0.41015625-11.40625t0.91796875-11.46484375t1.07421875-11.42578125t0.95703125-11.40625q-2.3046875,3.828125-4.47265625,7.79296875t-4.08203125,8.06640625q-0.703125,1.6015625-1.34765625,3.4375t-1.54296875,3.28125q-0.46875,0.703125-1.58203125,0.859375t-1.93359375,0.15625q-0.78125,0-1.62109375-0.2734375t-1.15234375-1.171875q-1.4453125-4.4140625-3.0859375-8.6328125t-3.3203125-8.5546875q0,2.890625,0.1171875,7.48046875t0.1171875,9.51171875t-0.15625,9.4140625t-0.7421875,7.109375q-0.15625,0.9765625-1.26953125,1.2109375t-1.93359375,0.234375q-0.625,0-1.19140625-0.078125t-1.11328125-0.3125z M63.854296875,125.4296875q0-2.65625,0.72265625-5.1171875t2.16796875-4.39453125t3.61328125-3.0859375t5.01953125-1.15234375q1.7578125,0,3.88671875,0.52734375t4.00390625,1.5625t3.125,2.63671875t1.25,3.671875q0,0.9765625-0.33203125,1.484375t-1.34765625,0.5078125l-0.4296875-0.078125q1.1328125,3.046875,1.953125,6.25t1.6015625,6.40625q0.3125,0.625,0.46875,1.11328125t0.15625,0.95703125q0,0.625-0.3515625,1.03515625t-0.91796875,0.60546875t-1.171875,0.2734375t-1.07421875,0.078125q-1.6796875,0-2.51953125-0.5859375t-1.2109375-1.6015625t-0.44921875-2.28515625t-0.3125-2.55859375q-0.46875,1.5234375-1.23046875,2.96875t-1.796875,2.59765625t-2.44140625,1.8359375t-3.1640625,0.68359375q-2.578125,0-4.3359375-1.484375t-2.83203125-3.65234375t-1.5625-4.62890625t-0.48828125-4.5703125z M69.401171875,124.8828125q0,1.4453125,0.1953125,3.046875t0.64453125,3.1640625t1.15234375,2.94921875t1.7578125,2.44140625q1.9140625-2.0703125,2.83203125-5.0390625t1.640625-5.72265625t1.640625-4.7265625t2.83203125-1.97265625q1.2109375,0,2.03125,0.4296875q-0.390625-0.9765625-1.2890625-1.89453125t-2.01171875-1.6796875t-2.3046875-1.25t-2.24609375-0.48828125q-0.3125,0-0.72265625,0.09765625t-0.64453125,0.01953125q-1.6015625,0.46875-2.63671875,1.62109375t-1.6796875,2.71484375t-0.91796875,3.203125t-0.2734375,3.0859375z M97.70859375,114.4921875q0-1.6015625,0.56640625-2.6953125t2.40234375-1.09375q0.703125,0,1.7578125,0.21484375t1.2109375,1.07421875q0.390625,2.3046875,0.4296875,5t0.2734375,5.078125q0.8984375-1.7578125,2.3046875-3.7890625t3.203125-3.75t3.90625-2.8515625t4.296875-1.1328125q0.15625,0,0.5859375,0.1171875t0.80078125,0.33203125t0.44921875,0.48828125t-0.4296875,0.5078125q-0.15625,0.46875-0.6640625,0.56640625t-0.8984375,0.09765625q-0.234375,0-0.7421875-0.1953125q-2.890625,1.5234375-4.921875,4.140625t-3.3203125,5.80078125t-1.875,6.71875t-0.5859375,6.89453125q0,1.6796875-0.76171875,2.03125t-2.44140625,0.3515625q-0.8984375,0-1.89453125-0.1953125t-1.38671875-1.25q-0.703125-2.2265625-1.15234375-5.1171875t-0.68359375-5.95703125t-0.33203125-6.03515625t-0.09765625-5.3515625z M123.867578125,100.625q0-0.546875,1.171875-0.9375t2.65625-0.64453125t2.87109375-0.37109375t1.89453125-0.1953125q0-1.0546875,0.078125-2.12890625t0.4296875-1.9140625t1.11328125-1.34765625t2.12890625-0.5078125q1.1328125,0,1.71875,0.2734375t1.25,1.1328125q0.15625,0.46875,0.15625,0.8984375l0,1.30859375t-0.078125,1.34765625q1.4453125-0.15625,2.87109375-0.37109375t2.87109375-0.21484375q1.0546875,0,1.4453125,0.0390625t0.78125,0.9375q0.3125,0.8984375-0.76171875,1.3671875t-2.578125,0.703125t-2.98828125,0.3515625t-1.796875,0.1171875q-0.46875,6.71875-0.95703125,13.3203125t-0.48828125,13.3984375q0,3.046875,0.1953125,6.2890625t1.09375,6.1328125q0.234375,0.8984375,0.78125,1.6796875t0.546875,1.6796875q0,0.546875-0.4296875,0.859375t-1.03515625,0.52734375t-1.2109375,0.25390625t-0.99609375,0.0390625q-2.4609375,0-3.75-1.8359375t-1.85546875-4.39453125t-0.60546875-5.25390625t-0.0390625-4.375q0-3.4375,0.13671875-7.03125t0.33203125-7.109375t0.546875-6.875t0.8203125-6.25q-1.3671875,0.15625-2.67578125,0.3515625t-2.67578125,0.1953125q-0.3125,0-0.83984375-0.0390625t-0.99609375-0.1953125t-0.80078125-0.4296875t-0.33203125-0.78125z M153.7375,124.4921875q0-3.59375,0.83984375-7.05078125t1.42578125-6.89453125q0.15625-0.8984375,1.23046875-1.11328125t1.81640625-0.21484375q1.2890625,0,2.0703125,0.390625q0.3125,0.15625,0.5859375,0.3515625t0.2734375,0.5078125q0,3.359375-0.80078125,6.5625t-0.80078125,6.796875q0,1.2109375,0.17578125,2.28515625t0.33203125,2.12890625l0.234375,1.1328125q0,0.3125,0.0390625,0.546875t0.1171875,0.546875q0,0.703125-0.99609375,0.95703125t-1.73828125,0.25390625q-1.1328125,0-2.08984375-0.44921875t-1.50390625-1.54296875l-0.546875-1.1328125q-0.46875-0.8984375-0.46875-2.01171875t-0.1953125-2.05078125z M156.2375,100.9765625l0-0.7421875q0-1.8359375,0.91796875-3.28125t2.75390625-1.4453125q0.234375,0,0.44921875,0.0390625t0.44921875,0.0390625q0.46875,0.078125,1.23046875,0.37109375t0.76171875,0.91796875l0,0.078125q-0.15625,0.3125-0.1953125,0.64453125t-0.1953125,0.56640625l0.078125-0.078125q-0.46875,1.2109375-0.76171875,1.953125t-0.64453125,1.19140625t-0.87890625,0.64453125t-1.50390625,0.1953125q-0.15625,0-0.546875-0.0390625t-0.83984375-0.15625t-0.76171875-0.3125t-0.3125-0.5859375z M170.833984375,125.625l0-1.1328125q0-1.40625,0.078125-2.65625q0.078125-1.7578125,0.078125-2.890625q0-0.625,0.078125-1.42578125t0.390625-1.26953125q0.390625-0.390625,0.91796875-0.80078125t1.15234375-0.41015625q1.9921875,0,3.125,0.44921875t1.2109375,1.85546875l0.15625,1.2109375q0.703125-1.6796875,1.875-4.16015625t2.71484375-4.7265625t3.4765625-3.828125t4.08203125-1.58203125q1.9921875,0,3.28125,1.875t2.05078125,4.78515625t1.07421875,6.484375t0.4296875,7.01171875t0.15625,6.26953125t0.2734375,4.27734375q0.15625,1.2109375,0.52734375,2.55859375t0.37109375,2.48046875q0,0.3125-0.44921875,0.60546875t-0.95703125,0.48828125t-1.03515625,0.3125t-0.76171875,0.1171875q-1.5234375,0-2.16796875-2.28515625t-0.80078125-5.72265625t-0.15625-7.44140625t-0.2734375-7.44140625t-1.11328125-5.72265625t-2.67578125-2.36328125q-1.6796875,0-3.4765625,2.16796875t-3.0859375,5.76171875q-1.25,3.59375-1.71875,8.1640625q-0.15625,1.4453125-0.15625,2.890625q0,3.1640625,0.6640625,6.328125q0.078125,0.546875-0.44921875,0.8203125t-1.30859375,0.4296875t-1.58203125,0.1953125t-1.23046875,0.0390625q-1.5234375,0-2.44140625-1.07421875t-1.42578125-2.75390625t-0.68359375-3.76953125t-0.21484375-4.12109375z M206.32890625,115.3515625q0-1.6015625,0.9375-2.75390625t2.28515625-1.875t2.94921875-1.07421875t2.96875-0.3515625q1.0546875,0,2.8125,0.3125t3.4375,0.9375t2.91015625,1.640625t1.23046875,2.3828125q0,0.625-0.46875,1.11328125t-0.9765625,0.48828125q-1.0546875,0-1.9140625-0.68359375t-1.77734375-1.4453125t-2.01171875-1.4453125t-2.4609375-0.68359375t-2.48046875,0.87890625t-1.11328125,2.32421875q0,2.3828125,1.6796875,4.66796875t3.69140625,4.8046875t3.69140625,5.29296875t1.6796875,6.1328125q0,1.4453125-0.60546875,2.44140625t-1.6015625,1.62109375t-2.24609375,0.95703125t-2.421875,0.33203125q-1.2890625,0-3.0078125-0.60546875t-3.2421875-1.6015625t-2.55859375-2.32421875t-1.03515625-2.7734375q0-0.703125,0.99609375-0.8984375t1.46484375-0.1953125q0.234375,0,0.72265625,0.15625t0.95703125,0.3515625t0.83984375,0.4296875t0.29296875,0.5078125q0.390625,0.46875,1.19140625,1.38671875t1.6015625,1.484375t1.40625,0.41015625t0.60546875-1.7578125q0-3.046875-1.640625-5.60546875t-3.57421875-5t-3.57421875-4.84375t-1.640625-5.13671875z"/><path fill="#edf3f7" d="M237.87216796875,116.17919921875q0-4.97998046875,0.447509765625-9.971435546875t1.870361328125-9.833740234375q0.4130859375-1.44580078125,1.07861328125-2.857177734375t1.62939453125-2.512939453125t2.294921875-1.7900390625t3.1669921875-0.6884765625l0.48193359375,0.0458984375q1.9736328125,0.275390625,2.91455078125,1.594970703125t0.94091796875,3.293212890625q0,0.52783203125-0.126220703125,1.319580078125t-0.401611328125,1.526123046875t-0.745849609375,1.250732421875t-1.181884765625,0.516357421875q-0.3212890625-0.0458984375-0.585205078125-0.11474609375t-0.493408203125-0.29833984375q0.3671875-0.80322265625,0.654052734375-1.67529296875t0.286865234375-1.99658203125q0-0.4130859375-0.06884765625-1.0556640625t-0.263916015625-1.273681640625t-0.516357421875-1.1015625t-0.89501953125-0.470458984375q-1.44580078125,0-2.4326171875,1.617919921875t-1.65234375,4.130859375t-0.98681640625,5.5537109375t-0.493408203125,5.875t-0.195068359375,5.11767578125t-0.02294921875,3.224365234375q0,1.1015625-0.02294921875,2.4326171875l0,0.29833984375q0.02294921875,1.17041015625,0.16064453125,2.22607421875q0.18359375,1.193359375,0.71142578125,2.0654296875t1.65234375,1.009765625q0.34423828125,0.0458984375,0.66552734375,0.0458984375q1.3310546875,0,2.40966796875-0.75732421875q1.3310546875-0.94091796875,2.36376953125-2.444091796875t1.8359375-3.3046875t1.480224609375-3.407958984375t1.319580078125-2.662109375t1.3310546875-1.0556640625q0.2294921875,0,0.6884765625,0.091796875t0.458984375,0.43603515625q0,0.091796875-0.0458984375,0.25244140625t-0.11474609375,0.25244140625q-0.61962890625,2.4326171875-1.572021484375,5.048828125t-2.4326171875,4.761962890625t-3.6259765625,3.499755859375t-5.152099609375,1.35400390625q-2.1572265625,0-3.499755859375-0.814697265625t-2.0654296875-2.18017578125t-0.98681640625-3.086669921875t-0.263916015625-3.48828125z M262.32846191406,114.38916015625q0-2.111328125,0.493408203125-4.142333984375t0.837646484375-4.050537109375q0.091796875-0.52783203125,0.722900390625-0.654052734375t1.067138671875-0.126220703125q0.75732421875,0,1.21630859375,0.2294921875q0.18359375,0.091796875,0.34423828125,0.20654296875t0.16064453125,0.29833984375q0,1.9736328125-0.470458984375,3.85546875t-0.470458984375,3.9931640625q0,0.71142578125,0.103271484375,1.342529296875t0.195068359375,1.250732421875l0.1376953125,0.66552734375q0,0.18359375,0.02294921875,0.3212890625t0.06884765625,0.3212890625q0,0.4130859375-0.585205078125,0.562255859375t-1.021240234375,0.149169921875q-0.66552734375,0-1.227783203125-0.263916015625t-0.883544921875-0.906494140625l-0.3212890625-0.66552734375q-0.275390625-0.52783203125-0.275390625-1.181884765625t-0.11474609375-1.204833984375z M263.79721191406,100.57373046875l0-0.43603515625q0-1.07861328125,0.539306640625-1.927734375t1.617919921875-0.84912109375q0.1376953125,0,0.263916015625,0.02294921875t0.263916015625,0.02294921875q0.275390625,0.0458984375,0.722900390625,0.218017578125t0.447509765625,0.539306640625l0,0.0458984375q-0.091796875,0.18359375-0.11474609375,0.378662109375t-0.11474609375,0.332763671875l0.0458984375-0.0458984375q-0.275390625,0.71142578125-0.447509765625,1.1474609375t-0.378662109375,0.699951171875t-0.516357421875,0.378662109375t-0.883544921875,0.11474609375q-0.091796875,0-0.3212890625-0.02294921875t-0.493408203125-0.091796875t-0.447509765625-0.18359375t-0.18359375-0.34423828125z M272.34969726562,123.0869140625q0-0.66552734375,0.057373046875-1.39990234375t0.103271484375-1.376953125l0.1376953125-3.4423828125q0.2294921875-4.130859375,0.562255859375-8.1240234375t0.562255859375-8.078125q0.1376953125-2.2490234375,0.20654296875-4.417724609375t0.20654296875-4.417724609375q-0.091796875-0.18359375-0.091796875-0.25244140625q0-0.3212890625,0.240966796875-0.5048828125t0.562255859375-0.309814453125t0.677001953125-0.172119140625t0.539306640625-0.0458984375l0.52783203125,0q0.71142578125,0.091796875,1.03271484375,0.447509765625t0.4130859375,0.84912109375t0.0458984375,1.0556640625t-0.0458984375,1.044189453125q0,3.32763671875-0.16064453125,6.781494140625t-0.3671875,6.9306640625t-0.378662109375,6.95361328125t-0.172119140625,6.873291015625l0,1.6064453125q0,1.07861328125-0.608154296875,1.4228515625t-1.686767578125,0.34423828125q-0.94091796875,0-1.65234375-0.4130859375t-0.71142578125-1.35400390625z M281.93489746094,106.40283203125q0-0.18359375,0.218017578125-0.332763671875t0.493408203125-0.218017578125t0.562255859375-0.091796875t0.424560546875-0.02294921875q1.03271484375,0,1.76708984375,0.91796875t1.273681640625,2.352294921875t0.91796875,3.1669921875t0.722900390625,3.453857421875t0.677001953125,3.155517578125t0.745849609375,2.214599609375q0.71142578125-1.39990234375,1.296630859375-3.37353515625t1.07861328125-4.0849609375t0.8720703125-4.165283203125t0.608154296875-3.591552734375q0.091796875-0.4130859375,0.57373046875-0.516357421875t0.80322265625-0.103271484375q0.52783203125,0,0.91796875,0.149169921875t0.39013671875,0.654052734375q0,0.84912109375-0.20654296875,2.306396484375t-0.562255859375,3.270263671875t-0.826171875,3.7177734375t-1.009765625,3.614501953125t-1.12451171875,3.029296875t-1.158935546875,1.870361328125q-0.275390625,0.3212890625-0.860595703125,0.447509765625t-0.975341796875,0.126220703125q-1.35400390625,0-2.2490234375-0.71142578125l0,0.0458984375q-1.39990234375-1.30810546875-2.0654296875-3.18994140625t-0.9638671875-3.92431640625t-0.539306640625-4.06201171875t-0.814697265625-3.671875q-0.091796875-0.18359375-0.2294921875-0.539306640625t-0.3212890625-0.71142578125t-0.309814453125-0.677001953125t-0.126220703125-0.5048828125z M300.0342578125,115.880859375q0-1.6064453125,0.355712890625-3.78662109375t1.204833984375-4.130859375t2.237548828125-3.316162109375t3.499755859375-1.365478515625q1.9736328125,0,2.96044921875,1.135986328125t0.98681640625,3.063720703125q0,1.26220703125-0.470458984375,2.765380859375t-1.342529296875,2.845703125t-2.0654296875,2.237548828125t-2.662109375,0.89501953125l-0.5966796875-0.0458984375q0,0.61962890625,0.18359375,1.663818359375t0.539306640625,2.076904296875t0.91796875,1.81298828125t1.365478515625,0.7802734375q1.17041015625,0,2.2490234375-0.94091796875t2.04248046875-2.08837890625t1.7900390625-2.08837890625t1.5146484375-0.94091796875q0.3671875,0,0.75732421875,0.11474609375t0.43603515625,0.642578125q0,0.3212890625-0.172119140625,0.52783203125t-0.309814453125,0.458984375q-0.71142578125,1.21630859375-1.549072265625,2.31787109375t-1.893310546875,1.99658203125t-2.306396484375,1.411376953125t-2.765380859375,0.516357421875q-1.9736328125,0-3.28173828125-0.699951171875t-2.111328125-1.8818359375t-1.158935546875-2.73095703125t-0.355712890625-3.247314453125z M304.14216796875,114.13671875l0.642578125,0.57373046875q0.458984375,0.4130859375,0.91796875,0.18359375t0.826171875-0.837646484375t0.677001953125-1.503173828125t0.55078125-1.8359375t0.355712890625-1.8359375t0.11474609375-1.49169921875l0-0.7802734375t-0.06884765625-0.826171875t-0.240966796875-0.654052734375t-0.539306640625-0.332763671875q-0.11474609375-0.02294921875-0.20654296875-0.02294921875q-0.7802734375,0-1.3310546875,0.98681640625q-0.5966796875,1.1015625-0.9638671875,2.673583984375t-0.52783203125,3.224365234375t-0.20654296875,2.478515625z M319.21223144531,124.25732421875l0.48193359375-0.57373046875q-0.091796875-3.85546875-0.20654296875-7.68798828125t-0.11474609375-7.619140625q0-4.70458984375,0.562255859375-9.099365234375t1.113037109375-9.007568359375q0.0458984375-0.275390625,0.263916015625-0.447509765625t0.539306640625-0.286865234375t0.654052734375-0.16064453125t0.608154296875-0.0458984375q0.3671875,0,0.91796875,0.1376953125t1.1015625,0.80322265625q0,0.2294921875,0.034423828125,0.401611328125t0.034423828125,0.401611328125q0,1.744140625-0.470458984375,3.74072265625t-0.631103515625,3.83251953125q-0.18359375,2.2490234375-0.25244140625,4.4521484375t-0.06884765625,4.47509765625l0.0458984375,2.01953125q0.458984375-0.57373046875,1.30810546875-1.46875t1.8359375-1.732666015625t1.9736328125-1.434326171875t1.7900390625-0.5966796875q1.21630859375,0,1.686767578125,0.6884765625t0.470458984375,1.81298828125q0,1.03271484375-0.447509765625,2.1572265625t-1.17041015625,2.191650390625t-1.640869140625,1.916259765625t-1.81298828125,1.26220703125q1.21630859375,1.5146484375,2.489990234375,2.8916015625t2.788330078125,2.59326171875l0,0.52783203125q-0.0458984375,0.2294921875-0.286865234375,0.34423828125t-0.52783203125,0.18359375t-0.562255859375,0.103271484375t-0.458984375,0.034423828125q-1.12451171875,0-2.168701171875-0.66552734375t-1.95068359375-1.62939453125t-1.709716796875-2.04248046875t-1.46875-1.8818359375q0.1376953125,2.63916015625,0.309814453125,5.266845703125t0.172119140625,5.266845703125q0,0.3212890625-0.286865234375,0.539306640625t-0.66552734375,0.332763671875t-0.768798828125,0.16064453125t-0.642578125,0.0458984375q-1.35400390625,0-1.916259765625-0.493408203125t-0.952392578125-1.709716796875z M323.91682128906,113.4482421875q0.57373046875,0,1.365478515625-0.493408203125t1.640869140625-1.227783203125t1.58349609375-1.549072265625t1.181884765625-1.549072265625t0.447509765625-1.181884765625t-0.61962890625-0.401611328125q-0.2294921875,0-0.94091796875,0.66552734375t-1.58349609375,1.62939453125t-1.744140625,2.08837890625t-1.3310546875,2.01953125z M337.79352539062,109.01904296875q0-0.94091796875,0.55078125-1.617919921875t1.342529296875-1.1015625t1.732666015625-0.631103515625t1.744140625-0.20654296875q0.61962890625,0,1.65234375,0.18359375t2.01953125,0.55078125t1.709716796875,0.9638671875t0.722900390625,1.39990234375q0,0.3671875-0.275390625,0.654052734375t-0.57373046875,0.286865234375q-0.61962890625,0-1.12451171875-0.401611328125t-1.044189453125-0.84912109375t-1.181884765625-0.84912109375t-1.44580078125-0.401611328125t-1.457275390625,0.516357421875t-0.654052734375,1.365478515625q0,1.39990234375,0.98681640625,2.742431640625t2.168701171875,2.82275390625t2.168701171875,3.109619140625t0.98681640625,3.60302734375q0,0.84912109375-0.355712890625,1.434326171875t-0.94091796875,0.952392578125t-1.319580078125,0.562255859375t-1.4228515625,0.195068359375q-0.75732421875,0-1.76708984375-0.355712890625t-1.90478515625-0.94091796875t-1.503173828125-1.365478515625t-0.608154296875-1.62939453125q0-0.4130859375,0.585205078125-0.52783203125t0.860595703125-0.11474609375q0.1376953125,0,0.424560546875,0.091796875t0.562255859375,0.20654296875t0.493408203125,0.25244140625t0.172119140625,0.29833984375q0.2294921875,0.275390625,0.699951171875,0.814697265625t0.94091796875,0.8720703125t0.826171875,0.240966796875t0.355712890625-1.03271484375q0-1.7900390625-0.9638671875-3.293212890625t-2.099853515625-2.9375t-2.099853515625-2.845703125t-0.9638671875-3.017822265625z M362.96514648437,109.19116210938q-0.057373046875-0.768798828125,0.091796875-1.411376953125t0.5966796875-1.044189453125t1.434326171875-0.401611328125q0.2294921875,0,0.562255859375,0.057373046875t0.654052734375,0.149169921875t0.539306640625,0.275390625t0.218017578125,0.5048828125l0,2.59326171875q0.89501953125-1.03271484375,1.95068359375-1.480224609375t2.40966796875-0.447509765625q1.03271484375,0,2.04248046875,0.470458984375t1.90478515625,1.250732421875t1.549072265625,1.72119140625t0.952392578125,1.8818359375q0.18359375-0.84912109375,0.4130859375-2.076904296875t0.677001953125-2.352294921875t1.181884765625-1.927734375t1.95068359375-0.80322265625q1.30810546875,0,2.203125,0.94091796875t1.457275390625,2.444091796875t0.84912109375,3.362060546875t0.424560546875,3.671875t0.1376953125,3.385009765625l0,2.467041015625q0,0.275390625-0.20654296875,0.447509765625t-0.516357421875,0.263916015625t-0.642578125,0.11474609375t-0.516357421875,0.02294921875q-0.71142578125,0-1.296630859375-0.218017578125t-0.585205078125-1.113037109375l0-2.0654296875t-0.0458984375-2.673583984375t-0.16064453125-2.86865234375t-0.29833984375-2.604736328125t-0.470458984375-1.8818359375t-0.699951171875-0.734375q-0.57373046875,0-0.826171875,0.642578125t-0.424560546875,1.62939453125t-0.263916015625,2.08837890625t-0.25244140625,2.08837890625t-0.516357421875,1.617919921875t-0.975341796875,0.631103515625q-0.66552734375,0-1.17041015625-0.631103515625t-0.998291015625-1.572021484375t-0.98681640625-2.01953125t-1.090087890625-2.01953125q-0.5966796875-0.9638671875-1.28515625-1.560546875q-0.61962890625-0.57373046875-1.39990234375-0.55078125l-0.11474609375,0q-1.03271484375,0.0458984375-1.617919921875,0.745849609375t-0.89501953125,1.709716796875t-0.378662109375,2.168701171875t-0.06884765625,2.031005859375q0,0.826171875,0.1376953125,1.927734375q0.091796875,0.734375,0.091796875,1.39990234375q0,0.34423828125-0.02294921875,0.66552734375q-0.06884765625,0.9638671875-0.516357421875,1.617919921875t-1.663818359375,0.654052734375q-0.458984375,0-1.1474609375-0.091796875t-0.91796875-0.61962890625q-0.52783203125-0.94091796875-0.80322265625-2.375244140625t-0.4130859375-2.96044921875t-0.16064453125-3.029296875t-0.02294921875-2.581787109375q0-0.75732421875-0.057373046875-1.526123046875z M391.90801269531,114.93994140625q0-1.560546875,0.424560546875-3.00634765625t1.273681640625-2.581787109375t2.122802734375-1.81298828125t2.948974609375-0.677001953125q1.03271484375,0,2.283447265625,0.309814453125t2.352294921875,0.91796875t1.8359375,1.549072265625t0.734375,2.1572265625q0,0.57373046875-0.195068359375,0.8720703125t-0.791748046875,0.29833984375l-0.25244140625-0.0458984375q0.66552734375,1.7900390625,1.1474609375,3.671875t0.94091796875,3.763671875q0.18359375,0.3671875,0.275390625,0.654052734375t0.091796875,0.562255859375q0,0.3671875-0.20654296875,0.608154296875t-0.539306640625,0.355712890625t-0.6884765625,0.16064453125t-0.631103515625,0.0458984375q-0.98681640625,0-1.480224609375-0.34423828125t-0.71142578125-0.94091796875t-0.263916015625-1.342529296875t-0.18359375-1.503173828125q-0.275390625,0.89501953125-0.722900390625,1.744140625t-1.0556640625,1.526123046875t-1.434326171875,1.07861328125t-1.85888671875,0.401611328125q-1.5146484375,0-2.54736328125-0.8720703125t-1.663818359375-2.145751953125t-0.91796875-2.719482421875t-0.286865234375-2.68505859375z M395.16680175781,114.61865234375q0,0.84912109375,0.11474609375,1.7900390625t0.378662109375,1.85888671875t0.677001953125,1.732666015625t1.03271484375,1.434326171875q1.12451171875-1.21630859375,1.663818359375-2.96044921875t0.9638671875-3.362060546875t0.9638671875-2.77685546875t1.663818359375-1.158935546875q0.71142578125,0,1.193359375,0.25244140625q-0.2294921875-0.57373046875-0.75732421875-1.113037109375t-1.181884765625-0.98681640625t-1.35400390625-0.734375t-1.319580078125-0.286865234375q-0.18359375,0-0.424560546875,0.057373046875t-0.378662109375,0.011474609375q-0.94091796875,0.275390625-1.549072265625,0.952392578125t-0.98681640625,1.594970703125t-0.539306640625,1.8818359375t-0.16064453125,1.81298828125z M411.79741210937,109.01904296875q0-0.94091796875,0.55078125-1.617919921875t1.342529296875-1.1015625t1.732666015625-0.631103515625t1.744140625-0.20654296875q0.61962890625,0,1.65234375,0.18359375t2.01953125,0.55078125t1.709716796875,0.9638671875t0.722900390625,1.39990234375q0,0.3671875-0.275390625,0.654052734375t-0.57373046875,0.286865234375q-0.61962890625,0-1.12451171875-0.401611328125t-1.044189453125-0.84912109375t-1.181884765625-0.84912109375t-1.44580078125-0.401611328125t-1.457275390625,0.516357421875t-0.654052734375,1.365478515625q0,1.39990234375,0.98681640625,2.742431640625t2.168701171875,2.82275390625t2.168701171875,3.109619140625t0.98681640625,3.60302734375q0,0.84912109375-0.355712890625,1.434326171875t-0.94091796875,0.952392578125t-1.319580078125,0.562255859375t-1.4228515625,0.195068359375q-0.75732421875,0-1.76708984375-0.355712890625t-1.90478515625-0.94091796875t-1.503173828125-1.365478515625t-0.608154296875-1.62939453125q0-0.4130859375,0.585205078125-0.52783203125t0.860595703125-0.11474609375q0.1376953125,0,0.424560546875,0.091796875t0.562255859375,0.20654296875t0.493408203125,0.25244140625t0.172119140625,0.29833984375q0.2294921875,0.275390625,0.699951171875,0.814697265625t0.94091796875,0.8720703125t0.826171875,0.240966796875t0.355712890625-1.03271484375q0-1.7900390625-0.9638671875-3.293212890625t-2.099853515625-2.9375t-2.099853515625-2.845703125t-0.9638671875-3.017822265625z M427.96903808594,114.38916015625q0-2.111328125,0.493408203125-4.142333984375t0.837646484375-4.050537109375q0.091796875-0.52783203125,0.722900390625-0.654052734375t1.067138671875-0.126220703125q0.75732421875,0,1.21630859375,0.2294921875q0.18359375,0.091796875,0.34423828125,0.20654296875t0.16064453125,0.29833984375q0,1.9736328125-0.470458984375,3.85546875t-0.470458984375,3.9931640625q0,0.71142578125,0.103271484375,1.342529296875t0.195068359375,1.250732421875l0.1376953125,0.66552734375q0,0.18359375,0.02294921875,0.3212890625t0.06884765625,0.3212890625q0,0.4130859375-0.585205078125,0.562255859375t-1.021240234375,0.149169921875q-0.66552734375,0-1.227783203125-0.263916015625t-0.883544921875-0.906494140625l-0.3212890625-0.66552734375q-0.275390625-0.52783203125-0.275390625-1.181884765625t-0.11474609375-1.204833984375z M429.43778808594,100.57373046875l0-0.43603515625q0-1.07861328125,0.539306640625-1.927734375t1.617919921875-0.84912109375q0.1376953125,0,0.263916015625,0.02294921875t0.263916015625,0.02294921875q0.275390625,0.0458984375,0.722900390625,0.218017578125t0.447509765625,0.539306640625l0,0.0458984375q-0.091796875,0.18359375-0.11474609375,0.378662109375t-0.11474609375,0.332763671875l0.0458984375-0.0458984375q-0.275390625,0.71142578125-0.447509765625,1.1474609375t-0.378662109375,0.699951171875t-0.516357421875,0.378662109375t-0.883544921875,0.11474609375q-0.091796875,0-0.3212890625-0.02294921875t-0.493408203125-0.091796875t-0.447509765625-0.18359375t-0.18359375-0.34423828125z M438.01322265625,115.0546875l0-0.66552734375q0-0.826171875,0.0458984375-1.560546875q0.0458984375-1.03271484375,0.0458984375-1.6982421875q0-0.3671875,0.0458984375-0.837646484375t0.2294921875-0.745849609375q0.2294921875-0.2294921875,0.539306640625-0.470458984375t0.677001953125-0.240966796875q1.17041015625,0,1.8359375,0.263916015625t0.71142578125,1.090087890625l0.091796875,0.71142578125q0.4130859375-0.98681640625,1.1015625-2.444091796875t1.594970703125-2.77685546875t2.04248046875-2.2490234375t2.398193359375-0.929443359375q1.17041015625,0,1.927734375,1.1015625t1.204833984375,2.811279296875t0.631103515625,3.8095703125t0.25244140625,4.119384765625t0.091796875,3.683349609375t0.16064453125,2.512939453125q0.091796875,0.71142578125,0.309814453125,1.503173828125t0.218017578125,1.457275390625q0,0.18359375-0.263916015625,0.355712890625t-0.562255859375,0.286865234375t-0.608154296875,0.18359375t-0.447509765625,0.06884765625q-0.89501953125,0-1.273681640625-1.342529296875t-0.470458984375-3.362060546875t-0.091796875-4.371826171875t-0.16064453125-4.371826171875t-0.654052734375-3.362060546875t-1.572021484375-1.388427734375q-0.98681640625,0-2.04248046875,1.273681640625t-1.81298828125,3.385009765625q-0.734375,2.111328125-1.009765625,4.79638671875q-0.091796875,0.84912109375-0.091796875,1.6982421875q0,1.85888671875,0.39013671875,3.7177734375q0.0458984375,0.3212890625-0.263916015625,0.48193359375t-0.768798828125,0.25244140625t-0.929443359375,0.11474609375t-0.722900390625,0.02294921875q-0.89501953125,0-1.434326171875-0.631103515625t-0.837646484375-1.617919921875t-0.401611328125-2.214599609375t-0.126220703125-2.421142578125z M458.86648925781,114.93994140625q0-1.560546875,0.424560546875-3.00634765625t1.273681640625-2.581787109375t2.122802734375-1.81298828125t2.948974609375-0.677001953125q1.03271484375,0,2.283447265625,0.309814453125t2.352294921875,0.91796875t1.8359375,1.549072265625t0.734375,2.1572265625q0,0.57373046875-0.195068359375,0.8720703125t-0.791748046875,0.29833984375l-0.25244140625-0.0458984375q0.66552734375,1.7900390625,1.1474609375,3.671875t0.94091796875,3.763671875q0.18359375,0.3671875,0.275390625,0.654052734375t0.091796875,0.562255859375q0,0.3671875-0.20654296875,0.608154296875t-0.539306640625,0.355712890625t-0.6884765625,0.16064453125t-0.631103515625,0.0458984375q-0.98681640625,0-1.480224609375-0.34423828125t-0.71142578125-0.94091796875t-0.263916015625-1.342529296875t-0.18359375-1.503173828125q-0.275390625,0.89501953125-0.722900390625,1.744140625t-1.0556640625,1.526123046875t-1.434326171875,1.07861328125t-1.85888671875,0.401611328125q-1.5146484375,0-2.54736328125-0.8720703125t-1.663818359375-2.145751953125t-0.91796875-2.719482421875t-0.286865234375-2.68505859375z M462.12527832031,114.61865234375q0,0.84912109375,0.11474609375,1.7900390625t0.378662109375,1.85888671875t0.677001953125,1.732666015625t1.03271484375,1.434326171875q1.12451171875-1.21630859375,1.663818359375-2.96044921875t0.9638671875-3.362060546875t0.9638671875-2.77685546875t1.663818359375-1.158935546875q0.71142578125,0,1.193359375,0.25244140625q-0.2294921875-0.57373046875-0.75732421875-1.113037109375t-1.181884765625-0.98681640625t-1.35400390625-0.734375t-1.319580078125-0.286865234375q-0.18359375,0-0.424560546875,0.057373046875t-0.378662109375,0.011474609375q-0.94091796875,0.275390625-1.549072265625,0.952392578125t-0.98681640625,1.594970703125t-0.539306640625,1.8818359375t-0.16064453125,1.81298828125z"/></svg>
